<?xml version="1.0" encoding="utf-8"?>
<!-- Generator: Adobe Illustrator 26.1.0, SVG Export Plug-In . SVG Version: 6.00 Build 0)  -->
<svg version="1.1" id="Layer_1" xmlns="http://www.w3.org/2000/svg" xmlns:xlink="http://www.w3.org/1999/xlink" x="0px" y="0px"
	 viewBox="0 0 1085.4 431" style="enable-background:new 0 0 1085.4 431;" xml:space="preserve">
<style type="text/css">
	.st0{fill:#1E0BDE;}
	.st1{fill:url(#SVGID_1_);}
	.st2{opacity:0.57;fill:#1E0BDE;enable-background:new    ;}
	.st3{fill:#3300FF;}
	.st4{enable-background:new    ;}
</style>
<g>
	<g id="b7f66610-28be-44b1-92fe-ee528eee9e28">
		<polygon class="st0" points="237.7,140.4 177.9,216.2 237.7,291.9 286.4,353.7 394.8,353.7 400.3,346.7 297.4,216.2 400.3,85.7 
			395.1,79 286.1,79 		"/>
		
			<linearGradient id="SVGID_1_" gradientUnits="userSpaceOnUse" x1="297" y1="217.645" x2="55.39" y2="217.645" gradientTransform="matrix(1 0 0 -1 0 434)">
			<stop  offset="0" style="stop-color:#30B0FF"/>
			<stop  offset="0.42" style="stop-color:#2866F0"/>
			<stop  offset="0.81" style="stop-color:#2124E3"/>
			<stop  offset="1" style="stop-color:#1E0BDE"/>
		</linearGradient>
		<polygon class="st1" points="74.6,85.7 177.5,216.2 74.6,346.7 80.1,353.7 188.5,353.7 237.2,291.9 297,216.2 237.2,140.4 
			188.8,79 79.8,79 		"/>
		<polygon class="st2" points="177.5,216.2 237.4,291.7 160.8,237.4 		"/>
		<path class="st3" d="M451.2,129.8h34.2c19.5,0,36.2,6.7,36.2,29.2c0,21.8-16.7,30.9-36.2,30.9h-10.3v30.3h-23.9V129.8z M483.8,171
			c9.5,0,14.5-4.2,14.5-12s-5-10.3-14.5-10.3h-8.6V171H483.8z M481.1,183.7l16.1-15.9l29.4,52.4h-26.7L481.1,183.7z"/>
		<path class="st3" d="M535,174.6c0-29.8,17-46.5,42-46.5s42,16.8,42,46.5s-17,47.3-42,47.3S535,204.4,535,174.6z M594.5,174.6
			c0-16.4-6.7-25.9-17.5-25.9s-17.5,9.5-17.5,25.9s6.7,26.7,17.5,26.7S594.5,191,594.5,174.6L594.5,174.6z"/>
		<path class="st3" d="M646.8,173.8l-23.1-44h26.7l6.1,14.8c2,4.2,3.9,9.2,6.4,15h0.5c2-5.9,3.9-10.9,5.6-15l5.3-14.8H700
			l-23.1,45.1l24.5,45.4h-26.7l-7.2-16.1c-2.2-4.7-4.2-9.5-6.4-15h-0.6c-1.9,5.6-3.9,10.3-5.8,15l-6.6,16.2h-25.6L646.8,173.8z"/>
		<path class="st3" d="M712.8,129.8h23.9v90.4h-23.9V129.8z"/>
		<path class="st3" d="M756.8,129.8h23.9v70.4h34.2v20h-58.2V129.8z"/>
		<path class="st3" d="M830.5,129.8h58.4v20h-34.5V164h29.5v20h-29.5v16.1h35.9v20h-59.8V129.8z"/>
		<path class="st3" d="M907.9,129.8h34.2c19.5,0,36.2,6.7,36.2,29.2c0,21.8-16.7,30.9-36.2,30.9h-10.3v30.3h-23.9V129.8z M940.4,171
			c9.5,0,14.5-4.2,14.5-12s-5-10.3-14.5-10.3h-8.6V171H940.4z M937.8,183.7l16.1-15.9l29.4,52.4h-26.7L937.8,183.7z"/>
		<g class="st4">
			<path class="st0" d="M455.2,290.7c1.7,1.8,3.7,3.3,6,4.4c2.3,1.1,4.7,1.6,7.2,1.6c3.2,0,5.6-0.7,7.4-2.2c1.8-1.4,2.6-3.3,2.6-5.7
				c0-1.2-0.2-2.3-0.6-3.1c-0.4-0.9-1-1.6-1.7-2.2c-0.7-0.6-1.5-1.2-2.5-1.6c-1-0.5-2-1-3.1-1.5l-6.9-3c-1.1-0.5-2.3-1.1-3.4-1.8
				c-1.2-0.7-2.2-1.5-3.1-2.5c-0.9-1-1.7-2.1-2.3-3.5c-0.6-1.3-0.9-2.9-0.9-4.6c0-1.8,0.4-3.5,1.1-5c0.8-1.6,1.8-2.9,3.1-4.1
				c1.3-1.1,2.9-2,4.8-2.7c1.8-0.6,3.8-1,6-1c2.9,0,5.5,0.5,8,1.6c2.4,1.1,4.5,2.5,6.2,4.3l-3.3,3.9c-1.5-1.4-3.1-2.5-4.9-3.3
				c-1.8-0.8-3.8-1.2-6-1.2c-2.7,0-4.8,0.6-6.5,1.9c-1.6,1.2-2.4,3-2.4,5.2c0,1.2,0.2,2.2,0.7,3c0.5,0.8,1.1,1.5,1.9,2.1
				c0.8,0.6,1.6,1.1,2.6,1.6c0.9,0.5,1.9,0.9,2.9,1.3l6.8,2.9c1.4,0.6,2.7,1.3,3.9,2c1.2,0.8,2.3,1.6,3.1,2.6c0.9,1,1.6,2.2,2.1,3.5
				c0.5,1.3,0.8,2.9,0.8,4.6c0,1.9-0.4,3.7-1.1,5.3c-0.8,1.7-1.8,3.1-3.3,4.3c-1.4,1.2-3.1,2.2-5.1,2.9c-2,0.7-4.3,1.1-6.8,1.1
				c-3.4,0-6.5-0.6-9.4-1.9c-2.9-1.3-5.4-3-7.5-5.2L455.2,290.7z"/>
			<path class="st0" d="M501.3,282.6l-14.4-29.4h6.5l6.2,13.5c0.8,1.8,1.5,3.5,2.3,5.2c0.7,1.7,1.5,3.5,2.3,5.3h0.3
				c0.8-1.8,1.7-3.6,2.5-5.3c0.8-1.7,1.6-3.4,2.3-5.2l6.1-13.5h6.4l-14.4,29.4v18.6h-6.1V282.6z"/>
			<path class="st0" d="M527.4,290.7c1.7,1.8,3.7,3.3,6,4.4c2.3,1.1,4.7,1.6,7.2,1.6c3.2,0,5.6-0.7,7.4-2.2s2.6-3.3,2.6-5.7
				c0-1.2-0.2-2.3-0.6-3.1c-0.4-0.9-1-1.6-1.7-2.2c-0.7-0.6-1.5-1.2-2.5-1.6c-1-0.5-2-1-3.1-1.5l-6.9-3c-1.1-0.5-2.3-1.1-3.4-1.8
				c-1.2-0.7-2.2-1.5-3.1-2.5c-0.9-1-1.7-2.1-2.3-3.5c-0.6-1.3-0.9-2.9-0.9-4.6c0-1.8,0.4-3.5,1.1-5c0.8-1.6,1.8-2.9,3.1-4.1
				c1.3-1.1,2.9-2,4.8-2.7c1.8-0.6,3.8-1,6-1c2.9,0,5.5,0.5,8,1.6c2.4,1.1,4.5,2.5,6.2,4.3l-3.3,3.9c-1.5-1.4-3.1-2.5-4.9-3.3
				c-1.8-0.8-3.8-1.2-6-1.2c-2.7,0-4.8,0.6-6.5,1.9c-1.6,1.2-2.4,3-2.4,5.2c0,1.2,0.2,2.2,0.7,3c0.5,0.8,1.1,1.5,1.9,2.1
				c0.8,0.6,1.6,1.1,2.6,1.6c0.9,0.5,1.9,0.9,2.9,1.3l6.8,2.9c1.4,0.6,2.7,1.3,3.9,2c1.2,0.8,2.3,1.6,3.1,2.6c0.9,1,1.6,2.2,2.1,3.5
				c0.5,1.3,0.8,2.9,0.8,4.6c0,1.9-0.4,3.7-1.1,5.3c-0.8,1.7-1.8,3.1-3.3,4.3c-1.4,1.2-3.1,2.2-5.1,2.9c-2,0.7-4.3,1.1-6.8,1.1
				c-3.4,0-6.5-0.6-9.4-1.9s-5.4-3-7.5-5.2L527.4,290.7z"/>
			<path class="st0" d="M574.7,258.3h-14.5v-5.1h35.1v5.1h-14.5v42.8h-6.1V258.3z"/>
			<path class="st0" d="M604,253.2h27.6v5.1H610v15.1h18.2v5.2H610V296h22.3v5.2H604V253.2z"/>
			<path class="st0" d="M642.5,253.2h7.2L659,279l3.5,9.8h0.3l3.4-9.8l9.2-25.7h7.2v48h-5.8v-26.4c0-2.1,0.1-4.5,0.3-7.1
				c0.2-2.6,0.4-4.9,0.5-7.1h-0.3l-3.9,10.7l-9.2,25.1h-3.4l-9.3-25.1l-3.8-10.7h-0.3c0.1,2.1,0.3,4.5,0.5,7.1
				c0.2,2.6,0.3,4.9,0.3,7.1v26.4h-5.6V253.2z"/>
			<path class="st0" d="M695.8,290.7c1.7,1.8,3.7,3.3,6,4.4c2.3,1.1,4.7,1.6,7.2,1.6c3.2,0,5.6-0.7,7.4-2.2s2.6-3.3,2.6-5.7
				c0-1.2-0.2-2.3-0.6-3.1c-0.4-0.9-1-1.6-1.7-2.2c-0.7-0.6-1.5-1.2-2.5-1.6c-1-0.5-2-1-3.1-1.5l-6.9-3c-1.1-0.5-2.3-1.1-3.4-1.8
				c-1.2-0.7-2.2-1.5-3.1-2.5c-0.9-1-1.7-2.1-2.3-3.5c-0.6-1.3-0.9-2.9-0.9-4.6c0-1.8,0.4-3.5,1.1-5c0.8-1.6,1.8-2.9,3.1-4.1
				c1.3-1.1,2.9-2,4.8-2.7c1.8-0.6,3.8-1,6-1c2.9,0,5.5,0.5,8,1.6c2.4,1.1,4.5,2.5,6.2,4.3l-3.3,3.9c-1.5-1.4-3.1-2.5-4.9-3.3
				c-1.8-0.8-3.8-1.2-6-1.2c-2.7,0-4.8,0.6-6.5,1.9c-1.6,1.2-2.4,3-2.4,5.2c0,1.2,0.2,2.2,0.7,3c0.5,0.8,1.1,1.5,1.9,2.1
				c0.8,0.6,1.6,1.1,2.6,1.6c0.9,0.5,1.9,0.9,2.9,1.3l6.8,2.9c1.4,0.6,2.7,1.3,3.9,2c1.2,0.8,2.3,1.6,3.1,2.6c0.9,1,1.6,2.2,2.1,3.5
				c0.5,1.3,0.8,2.9,0.8,4.6c0,1.9-0.4,3.7-1.1,5.3c-0.8,1.7-1.8,3.1-3.3,4.3c-1.4,1.2-3.1,2.2-5.1,2.9c-2,0.7-4.3,1.1-6.8,1.1
				c-3.4,0-6.5-0.6-9.4-1.9s-5.4-3-7.5-5.2L695.8,290.7z"/>
		</g>
	</g>
</g>
</svg>
